<?xml version="1.0" encoding="utf-8"?>
<svg viewBox="0 0 500 500" xmlns="http://www.w3.org/2000/svg">
  <defs/>
  <path d="M 131.51 104.6 Q 160.01 104.6 179.4 108.77 Q 198.8 112.93 211.95 119.07 Q 225.11 125.2 234.97 131.34 L 234.97 409.71 Q 234.97 414.97 232.78 417.82 Q 223.57 429.88 205.82 443.91 Q 202.75 446.1 200.34 446.1 Q 197.71 446.1 194.86 443.91 Q 185.43 436.67 178.97 430.32 Q 172.5 423.96 167.9 417.82 Q 165.71 414.97 165.71 409.71 L 165.71 312.39 L 164.83 312.39 Q 160.01 318.53 152.33 324.89 Q 144.66 331.24 132.5 335.63 Q 120.33 340.01 101.26 340.01 Q 68.17 340.01 47.01 325.65 Q 25.86 311.3 15.89 286.09 Q 5.92 260.88 5.92 228.66 Q 5.92 193.37 17.53 165.32 Q 29.15 137.26 56.55 120.93 Q 83.95 104.6 131.51 104.6 Z M 129.1 157.64 Q 103.67 157.64 90.3 174.74 Q 76.93 191.84 76.93 227.79 Q 76.93 284.12 123.4 284.12 Q 141.59 284.12 151.24 276.66 Q 160.88 269.21 165.71 257.81 L 165.71 167.29 Q 160.88 163.78 152.12 160.71 Q 143.35 157.64 129.1 157.64 Z" style="fill: rgb(129, 216, 207);"/>
  <path d="M 401.83 108.96 Q 434.02 108.96 454.86 123.4 Q 475.7 137.85 485.95 163.09 Q 496.21 188.34 496.21 220.98 Q 496.21 256.26 484.19 284.48 Q 472.17 312.71 448.8 329.25 Q 425.42 345.79 390.8 345.79 Q 372.94 345.79 361.37 341.71 Q 349.79 337.63 342.84 332 Q 335.9 326.38 331.93 321.75 L 331.05 321.75 L 331.05 415.69 Q 331.05 420.98 328.84 423.85 Q 319.58 435.97 301.72 450.09 Q 298.63 452.29 296.21 452.29 Q 293.56 452.29 290.69 450.09 Q 281.21 442.81 274.71 436.41 Q 268.2 430.02 263.57 423.85 Q 261.37 420.98 261.37 415.69 L 261.37 143.8 Q 261.37 138.51 263.57 135.64 Q 268.2 129.47 274.71 123.07 Q 281.21 116.68 290.69 109.4 Q 293.56 107.2 296.65 107.2 Q 299.51 107.2 302.6 109.4 Q 311.86 116.68 318.48 123.29 Q 325.09 129.91 330.17 136.96 L 331.27 136.96 Q 335.02 132.33 342.73 125.72 Q 350.45 119.1 364.67 114.03 Q 378.9 108.96 401.83 108.96 Z M 374.71 289.56 Q 398.52 289.56 411.64 272.91 Q 424.76 256.26 424.76 224.73 Q 424.76 165.19 375.81 165.19 Q 355.08 165.19 345.16 173.68 Q 335.24 182.17 331.05 191.65 L 331.05 239.5 Q 331.05 260.89 342.07 275.22 Q 353.1 289.56 374.71 289.56 Z" style="fill: rgb(231, 212, 63);"/>
</svg>